<svg xmlns="http://www.w3.org/2000/svg" xmlns:xlink="http://www.w3.org/1999/xlink" width="500" zoomAndPan="magnify" viewBox="0 0 375 374.999991" height="500" preserveAspectRatio="xMidYMid meet" version="1.2"><defs><clipPath id="62147c9a27"><path d="M 12.175781 86.183594 L 363.175781 86.183594 L 363.175781 297.683594 L 12.175781 297.683594 Z M 12.175781 86.183594 "/></clipPath></defs><g id="5bf05b40f4"><g clip-rule="nonzero" clip-path="url(#62147c9a27)"><path style=" stroke:none;fill-rule:evenodd;fill:#000000;fill-opacity:1;" d="M 287.429688 252.042969 C 278.738281 252.042969 271.683594 258.832031 271.683594 267.210938 C 271.683594 275.589844 278.738281 282.382812 287.429688 282.382812 C 296.117188 282.382812 303.160156 275.589844 303.160156 267.210938 C 303.160156 258.832031 296.117188 252.042969 287.429688 252.042969 Z M 88.136719 252.042969 C 79.449219 252.042969 72.402344 258.832031 72.402344 267.210938 C 72.402344 275.589844 79.449219 282.382812 88.136719 282.382812 C 96.828125 282.382812 103.878906 275.589844 103.878906 267.210938 C 103.878906 258.832031 96.828125 252.042969 88.136719 252.042969 Z M 287.429688 236.777344 C 304.859375 236.777344 318.992188 250.402344 318.992188 267.210938 C 318.992188 284.019531 304.859375 297.644531 287.429688 297.644531 C 269.984375 297.644531 255.855469 284.019531 255.855469 267.210938 C 255.855469 250.402344 269.984375 236.777344 287.429688 236.777344 Z M 88.136719 236.777344 C 105.578125 236.777344 119.710938 250.402344 119.710938 267.210938 C 119.710938 284.019531 105.578125 297.644531 88.136719 297.644531 C 70.703125 297.644531 56.574219 284.019531 56.574219 267.210938 C 56.574219 250.402344 70.703125 236.777344 88.136719 236.777344 Z M 239.589844 199.824219 C 238.5 199.824219 237.609375 200.707031 237.609375 201.800781 L 237.609375 203.351562 C 237.609375 204.445312 238.5 205.328125 239.589844 205.328125 L 248.886719 205.328125 C 249.976562 205.328125 250.863281 204.445312 250.863281 203.351562 L 250.863281 201.800781 C 250.863281 200.707031 249.976562 199.824219 248.886719 199.824219 Z M 155.71875 144.398438 L 159.90625 144.398438 C 163.488281 144.5 166.023438 145.5625 167.519531 147.582031 C 169.003906 149.605469 169.742188 153.175781 169.742188 158.296875 L 169.742188 167.828125 C 169.667969 172.601562 168.84375 175.957031 167.28125 177.90625 C 165.710938 179.851562 163.007812 180.824219 159.171875 180.824219 L 155.71875 180.824219 Z M 115.414062 143.683594 C 118.503906 143.683594 120.769531 144.890625 122.230469 147.300781 C 123.695312 149.710938 124.421875 153.390625 124.421875 158.335938 L 124.421875 167.867188 C 124.402344 172.535156 123.652344 175.984375 122.191406 178.207031 C 120.734375 180.425781 118.503906 181.539062 115.5 181.539062 C 112.386719 181.539062 110.089844 180.402344 108.59375 178.128906 C 107.109375 175.859375 106.359375 172.324219 106.359375 167.527344 L 106.359375 157.773438 C 106.414062 153.023438 107.171875 149.492188 108.636719 147.167969 C 110.101562 144.84375 112.355469 143.683594 115.414062 143.683594 Z M 144.195312 135.171875 L 144.195312 190.015625 L 158.96875 190.015625 C 165.914062 190.015625 171.375 187.960938 175.332031 183.855469 C 179.285156 179.75 181.261719 174.09375 181.261719 166.886719 L 181.261719 157.996094 C 181.1875 150.914062 179.167969 145.339844 175.214844 141.273438 C 171.257812 137.207031 165.945312 135.171875 159.289062 135.171875 Z M 245.253906 135.035156 C 241.308594 135.046875 238.113281 138.230469 238.101562 142.167969 L 238.101562 179.210938 C 238.101562 182.5625 240.445312 185.460938 243.726562 186.183594 L 325.0625 204 C 326.066406 204.222656 327.113281 204.132812 328.066406 203.75 C 330.652344 202.707031 331.902344 199.761719 330.855469 197.175781 L 308.472656 141.613281 C 306.871094 137.644531 303.011719 135.042969 298.726562 135.035156 Z M 115.414062 134.417969 C 108.96875 134.417969 103.921875 136.535156 100.289062 140.765625 C 96.667969 144.996094 94.847656 150.878906 94.847656 158.410156 L 94.847656 167.789062 C 94.902344 175.046875 96.75 180.691406 100.40625 184.722656 C 104.0625 188.753906 109.097656 190.769531 115.5 190.769531 C 121.921875 190.769531 126.945312 188.734375 130.558594 184.664062 C 134.171875 180.597656 135.988281 174.886719 135.988281 167.527344 L 135.988281 158.148438 C 135.933594 150.640625 134.074219 144.808594 130.417969 140.652344 C 126.765625 136.496094 121.761719 134.417969 115.414062 134.417969 Z M 69.132812 134.417969 C 62.816406 134.417969 57.878906 136.457031 54.332031 140.539062 C 50.769531 144.621094 48.996094 150.425781 48.996094 157.960938 L 48.996094 167.1875 C 48.996094 174.746094 50.71875 180.566406 54.148438 184.644531 C 57.589844 188.726562 62.527344 190.769531 68.984375 190.769531 C 75.117188 190.769531 79.875 189.160156 83.242188 185.945312 C 86.609375 182.730469 88.4375 178 88.726562 171.746094 L 77.214844 171.746094 C 77.054688 175.460938 76.402344 178.03125 75.246094 179.449219 C 74.101562 180.867188 72.007812 181.578125 68.984375 181.578125 C 65.894531 181.578125 63.726562 180.558594 62.453125 178.527344 C 61.191406 176.492188 60.5625 172.75 60.5625 167.300781 L 60.5625 156.941406 C 60.636719 152.195312 61.320312 148.789062 62.59375 146.714844 C 63.875 144.644531 66.054688 143.609375 69.132812 143.609375 C 72.167969 143.609375 74.253906 144.34375 75.386719 145.8125 C 76.519531 147.28125 77.140625 149.949219 77.246094 153.816406 L 88.808594 153.816406 C 88.363281 147.5625 86.523438 142.765625 83.304688 139.425781 C 80.078125 136.085938 75.355469 134.417969 69.132812 134.417969 Z M 308.164062 121.851562 C 313.710938 121.847656 318.703125 125.226562 320.753906 130.375 L 349.292969 201.804688 C 351.207031 206.59375 352.1875 211.703125 352.179688 216.855469 L 352.101562 247.109375 L 356.164062 247.109375 C 360.035156 247.109375 363.175781 250.246094 363.175781 254.113281 L 363.175781 262.890625 C 363.175781 266.753906 360.035156 269.890625 356.164062 269.890625 L 325.789062 269.890625 L 325.925781 267.210938 C 325.925781 246.710938 308.6875 230.09375 287.429688 230.09375 C 266.160156 230.09375 248.917969 246.710938 248.917969 267.210938 L 249.058594 269.890625 L 224.550781 269.890625 L 224.550781 121.890625 Z M 26.09375 86.222656 L 204.46875 86.222656 C 211.191406 86.222656 216.800781 90.984375 218.09375 97.316406 L 218.246094 98.832031 L 218.246094 269.890625 L 204.875 269.890625 L 204.46875 269.933594 L 126.496094 269.933594 L 126.648438 267.210938 C 126.648438 246.710938 109.40625 230.09375 88.136719 230.09375 C 66.878906 230.09375 49.636719 246.710938 49.636719 267.210938 L 49.777344 269.933594 L 26.09375 269.933594 C 18.40625 269.933594 12.175781 263.710938 12.175781 256.042969 L 12.175781 100.113281 C 12.175781 92.441406 18.40625 86.222656 26.09375 86.222656 Z M 26.09375 86.222656 "/></g></g></svg>