<svg xmlns="http://www.w3.org/2000/svg" xmlns:xlink="http://www.w3.org/1999/xlink" width="500" zoomAndPan="magnify" viewBox="0 0 375 374.999991" height="500" preserveAspectRatio="xMidYMid meet" version="1.2"><defs><clipPath id="302ffe1b53"><path d="M 25 88.375 L 349.75 88.375 L 349.75 286.375 L 25 286.375 Z M 25 88.375 "/></clipPath></defs><g id="7c36f853f4"><g clip-rule="nonzero" clip-path="url(#302ffe1b53)"><path style=" stroke:none;fill-rule:nonzero;fill:#000000;fill-opacity:1;" d="M 312.230469 224.890625 C 312.230469 222.53125 310.316406 220.617188 307.957031 220.617188 L 281.71875 220.617188 C 279.351562 220.617188 277.441406 222.53125 277.441406 224.890625 L 277.441406 251.121094 C 277.441406 253.476562 279.351562 255.390625 281.71875 255.390625 L 307.957031 255.390625 C 310.316406 255.390625 312.230469 253.476562 312.230469 251.121094 Z M 151.371094 247.410156 L 52.535156 247.410156 L 52.535156 255.390625 L 151.371094 255.390625 Z M 52.535156 228.597656 L 122.050781 228.597656 L 122.050781 220.617188 L 52.535156 220.617188 Z M 349.621094 160.230469 L 349.621094 263.699219 C 349.621094 276.207031 339.476562 286.347656 326.960938 286.347656 L 47.789062 286.347656 C 35.273438 286.347656 25.128906 276.207031 25.128906 263.699219 L 25.128906 160.230469 Z M 349.621094 111.015625 L 349.621094 128.304688 L 25.128906 128.304688 L 25.128906 111.015625 C 25.128906 98.507812 35.273438 88.367188 47.789062 88.367188 L 326.960938 88.367188 C 339.476562 88.367188 349.621094 98.507812 349.621094 111.015625 "/></g></g></svg>